<svg width="18" height="16" viewBox="0 0 18 16" fill="none" xmlns="http://www.w3.org/2000/svg">
<path fill-rule="evenodd" clip-rule="evenodd" d="M7.86503 2.61308C8.43341 3.19318 8.71566 3.74943 8.71566 3.74943C8.71566 3.74943 8.99791 3.19318 9.5663 2.61308C9.95765 2.21365 10.4847 1.80291 11.1486 1.55465C11.5353 1.41004 11.9685 1.32055 12.4485 1.32055C14.4805 1.32055 16.0896 2.99572 16.1104 4.99462C16.1524 9.14383 12.7697 12.0945 9.06229 14.5743C8.96007 14.6428 8.8393 14.6794 8.71566 14.6794C8.59203 14.6794 8.47126 14.6428 8.36904 14.5743C4.66128 12.0945 1.27859 9.14383 1.32095 4.99462C1.34175 2.99572 2.95087 1.32055 4.98288 1.32055C6.28666 1.32055 7.24571 1.98098 7.86503 2.61308ZM7.6343 15.6716C7.6345 15.6717 7.63471 15.6718 7.63491 15.672C7.63471 15.6718 7.6345 15.6717 7.6343 15.6716ZM7.6343 15.6716C3.9677 13.2193 -0.0498583 9.91002 0.00046805 4.98113L0.000470695 4.98088C0.0284746 2.28938 2.19598 -1.49297e-08 4.98288 -3.38768e-08C6.69404 -4.55104e-08 7.94037 0.837707 8.7104 1.59106C8.71215 1.59278 8.71391 1.5945 8.71566 1.59622C8.71742 1.5945 8.71917 1.59278 8.72093 1.59106C9.49095 0.837707 10.7373 -7.29991e-08 12.4485 -8.46327e-08C15.2353 -1.0358e-07 17.4029 2.28938 17.4309 4.98088L17.4309 4.98126C17.4807 9.9103 13.4629 13.2196 9.79647 15.6719C9.47592 15.8865 9.09941 16 8.71566 16C8.33194 16 7.95545 15.8865 7.63491 15.672" fill="#EA4B79"/>
<path d="M12.4483 1.32056C9.94799 1.32056 8.71554 3.74944 8.71554 3.74944C8.71554 3.74944 7.48309 1.32056 4.98275 1.32056C2.95075 1.32056 1.34163 2.99573 1.32083 4.99462C1.27846 9.14383 4.66116 12.0945 8.36891 14.5743C8.47113 14.6428 8.59191 14.6794 8.71554 14.6794C8.83917 14.6794 8.95995 14.6428 9.06217 14.5743C12.7695 12.0945 16.1522 9.14383 16.1102 4.99462C16.0895 2.99573 14.4803 1.32056 12.4483 1.32056Z" fill="url(#paint0_linear_95_1453)" fill-opacity="0.5"/>
<defs>
<linearGradient id="paint0_linear_95_1453" x1="8.71554" y1="1.32056" x2="8.71554" y2="14.6794" gradientUnits="userSpaceOnUse">
<stop stop-color="#C433F4"/>
<stop offset="1" stop-color="#EA4B79"/>
</linearGradient>
</defs>
</svg>
