<svg width="46" height="28" viewBox="0 0 46 28" fill="none" xmlns="http://www.w3.org/2000/svg">
<g filter="url(#filter0_dd_136_3528)">
<path d="M43.2906 11.5996L26.2444 1.40421C25.8227 1.1477 25.3398 1.00911 24.8462 1.00292C24.3526 0.996734 23.8664 1.12317 23.4384 1.36902C22.974 1.63937 22.5895 2.02776 22.3238 2.49476C22.0581 2.96176 21.9208 3.49072 21.9258 4.02793L21.9258 11.1602L5.61516 1.4015C5.19345 1.145 4.71058 1.00641 4.21698 1.00022C3.72339 0.994027 3.23719 1.12046 2.80918 1.36632C2.34477 1.63666 1.9602 2.02506 1.69453 2.49205C1.42885 2.95905 1.29154 3.48802 1.29653 4.02523L1.29653 23.9648C1.29138 24.5022 1.42862 25.0313 1.6943 25.4985C1.95998 25.9657 2.34463 26.3542 2.80918 26.6246C3.23719 26.8705 3.72339 26.9969 4.21698 26.9907C4.71058 26.9845 5.19345 26.8459 5.61516 26.5894L21.9258 16.8263L21.9258 23.9612C21.92 24.4992 22.0569 25.0291 22.3226 25.4969C22.5884 25.9648 22.9734 26.3539 23.4384 26.6246C23.8664 26.8705 24.3526 26.9969 24.8462 26.9907C25.3398 26.9845 25.8227 26.8459 26.2444 26.5894L43.2906 16.3941C43.6958 16.1403 44.0299 15.7878 44.2615 15.3696C44.4931 14.9513 44.6146 14.4812 44.6146 14.0031C44.6146 13.5251 44.4931 13.0549 44.2615 12.6367C44.0299 12.2185 43.6958 11.866 43.2906 11.6122L43.2906 11.5996Z" fill="url(#paint0_linear_136_3528)"/>
<path d="M22.3238 2.49476L22.7584 2.742C22.9802 2.35216 23.3011 2.02785 23.6886 1.80192C24.0387 1.6011 24.4363 1.49782 24.84 1.50288C25.2441 1.50795 25.6394 1.62141 25.9846 1.8314L25.9878 1.83332L42.7906 11.8831L42.7906 11.889L43.0252 12.036C43.3587 12.2448 43.6336 12.5348 43.8241 12.8789C44.0147 13.223 44.1146 13.6099 44.1146 14.0031C44.1146 14.3964 44.0147 14.7832 43.8241 15.1273C43.6344 15.47 43.361 15.7591 43.0294 15.9677L25.9878 26.1603L25.9846 26.1623C25.6394 26.3722 25.2441 26.4857 24.84 26.4908C24.4364 26.4958 24.0389 26.3926 23.6888 26.1918C23.3006 25.9656 22.9793 25.6406 22.7574 25.25C22.5353 24.859 22.4209 24.4162 22.4258 23.9666L22.4258 23.9666L22.4258 23.9612L22.4258 16.8263L22.4258 15.9442L21.669 16.3972L5.35835 26.1604L5.35532 26.1623C5.01011 26.3722 4.6148 26.4857 4.21071 26.4908C3.80707 26.4958 3.40947 26.3925 3.05938 26.1917C2.67171 25.9657 2.35071 25.6413 2.12893 25.2513L1.6943 25.4985L2.12893 25.2513C1.90689 24.8609 1.7922 24.4187 1.7965 23.9696L1.79653 23.9696L1.79653 23.9648L1.79653 4.02523L1.79655 4.02523L1.7965 4.02058C1.79234 3.57164 1.90709 3.12958 2.12912 2.73929C2.35091 2.34943 2.67187 2.02509 3.05947 1.79916C3.40954 1.59837 3.8071 1.49512 4.21071 1.50018C4.6148 1.50524 5.01011 1.6187 5.35532 1.82869L5.35531 1.8287L5.35845 1.83057L21.6691 11.5892L22.4258 12.042L22.4258 11.1602L22.4258 4.02793L22.4258 4.02329C22.4216 3.57434 22.5363 3.13228 22.7584 2.742L22.3238 2.49476Z" stroke="url(#paint1_linear_136_3528)"/>
</g>
<defs>
<filter id="filter0_dd_136_3528" x="0.796387" y="0.5" width="45.0181" height="27.3909" filterUnits="userSpaceOnUse" color-interpolation-filters="sRGB">
<feFlood flood-opacity="0" result="BackgroundImageFix"/>
<feColorMatrix in="SourceAlpha" type="matrix" values="0 0 0 0 0 0 0 0 0 0 0 0 0 0 0 0 0 0 127 0" result="hardAlpha"/>
<feOffset dx="0.5" dy="0.2"/>
<feGaussianBlur stdDeviation="0.35"/>
<feComposite in2="hardAlpha" operator="out"/>
<feColorMatrix type="matrix" values="0 0 0 0 1 0 0 0 0 1 0 0 0 0 1 0 0 0 1 0"/>
<feBlend mode="normal" in2="BackgroundImageFix" result="effect1_dropShadow_136_3528"/>
<feColorMatrix in="SourceAlpha" type="matrix" values="0 0 0 0 0 0 0 0 0 0 0 0 0 0 0 0 0 0 127 0" result="hardAlpha"/>
<feOffset dx="-0.2" dy="0.4"/>
<feGaussianBlur stdDeviation="0.15"/>
<feComposite in2="hardAlpha" operator="out"/>
<feColorMatrix type="matrix" values="0 0 0 0 0 0 0 0 0 0 0 0 0 0 0 0 0 0 0.59 0"/>
<feBlend mode="normal" in2="effect1_dropShadow_136_3528" result="effect2_dropShadow_136_3528"/>
<feBlend mode="normal" in="SourceGraphic" in2="effect2_dropShadow_136_3528" result="shape"/>
</filter>
<linearGradient id="paint0_linear_136_3528" x1="22.9555" y1="1" x2="22.9555" y2="26.9909" gradientUnits="userSpaceOnUse">
<stop stop-color="#7E3093"/>
<stop offset="1" stop-color="#CC576E"/>
</linearGradient>
<linearGradient id="paint1_linear_136_3528" x1="22.9555" y1="1" x2="22.9555" y2="26.9909" gradientUnits="userSpaceOnUse">
<stop stop-color="#C433F4"/>
<stop offset="0.466" stop-color="#C5EA4D" stop-opacity="0.73"/>
<stop offset="1" stop-color="#EA4B79"/>
</linearGradient>
</defs>
</svg>
