<svg width="150" height="66" viewBox="0 0 150 66" fill="none" xmlns="http://www.w3.org/2000/svg">
<path fill-rule="evenodd" clip-rule="evenodd" d="M43.4541 65.9966L43.4571 65.9996C43.4571 65.9996 43.4541 65.9996 43.4541 65.9966Z" fill="#E72B48"/>
<path d="M47.1478 51.4015C44.0851 53.7482 40.8239 55.9767 37.5013 58.1177C37.0783 58.3918 36.5773 58.536 36.0692 58.536C35.5564 58.536 35.0578 58.3918 34.6348 58.1177C19.2906 48.2302 5.29352 36.4615 5.4684 19.9169C5.55347 11.9459 12.2129 5.26517 20.6211 5.26517C26.0163 5.26517 29.9864 7.90012 32.5481 10.4193C32.6851 10.554 32.8175 10.6863 32.9427 10.8163C34.0842 8.69178 35.6037 6.7776 37.4257 5.17301C36.9483 5.56293 36.5017 5.95759 36.0905 6.34515C36.0834 6.34987 36.0763 6.35932 36.0692 6.36641C36.0621 6.35932 36.055 6.35224 36.048 6.34515C32.8624 3.34155 27.7036 0 20.6211 0C9.08879 0 0.118161 9.12898 0.00236549 19.8625C2.30785e-06 19.9854 0 20.1059 0 20.2265C0 39.6825 16.5139 52.7746 31.5934 62.492L31.5981 62.4943C32.9238 63.3498 34.4812 63.8011 36.0716 63.8011C37.6596 63.8011 39.217 63.3498 40.5451 62.4943C44.1537 60.1666 47.8449 57.6474 51.3732 54.8943C49.9293 53.7695 48.5161 52.6068 47.1478 51.4015Z" fill="#EA4B79"/>
<path d="M69.6335 31.1467C69.7753 31.3547 69.9289 31.5485 70.0943 31.7328C67.3057 39.3659 61.9177 45.8315 55.5915 51.4016C54.2232 52.6068 52.81 53.7718 51.3685 54.8943C49.9293 53.7718 48.5161 52.6068 47.1478 51.4016C40.6609 45.6874 35.1618 39.0374 32.437 31.1467H37.2485C38.0874 31.1467 38.7892 30.511 38.8743 29.6768C38.879 29.6319 39.3233 25.2246 40.1717 20.6424C41.566 13.1109 42.8516 11.4733 43.18 11.166C43.7567 11.3267 46.1789 12.7352 48.0694 24.9127C49.2203 32.326 49.5488 39.8574 49.5512 39.933C49.5866 40.7696 50.2483 41.4431 51.0849 41.4927C51.118 41.4951 51.151 41.4975 51.1841 41.4975C51.9782 41.4975 52.6635 40.9209 52.7935 40.1268C52.8029 40.0654 53.8073 33.9566 55.3882 27.8099C58.1319 17.1331 60.1406 15.89 60.4171 15.7672C60.6203 15.8948 61.8633 16.9015 63.0686 22.6417C63.813 26.1793 64.1414 29.6319 64.1462 29.665C64.2242 30.504 64.9284 31.1467 65.7697 31.1467H69.6335Z" fill="#EA4B79"/>
<path d="M72.1291 19.0354L71.6824 19.4301C71.3327 19.7396 71.0066 20.0799 70.7088 20.4439C70.2243 21.0418 69.8132 21.6987 69.4823 22.3982C69.1491 23.1072 68.8939 23.8563 68.7261 24.622C68.5489 25.3971 68.4591 26.203 68.4591 27.0135C68.4591 27.3089 68.4732 27.5996 68.5016 27.8808H67.2302C67.0482 26.392 66.7056 23.9768 66.1691 21.5262C64.8221 15.3796 63.0899 12.5934 60.5518 12.4918C57.4041 12.3618 54.9582 16.5588 52.354 26.5054C52.1791 27.1671 52.0137 27.8288 51.853 28.4834C51.6947 27.16 51.5103 25.7965 51.3 24.4353C49.5489 13.1393 46.9305 7.87885 43.0596 7.87885C43.0572 7.87885 43.0572 7.87885 43.0549 7.87885C40.4436 7.88358 38.6688 11.27 37.1209 19.2032C36.4521 22.6298 36.0102 26.0139 35.7881 27.8808H31.4918C30.9152 25.4444 30.6033 22.8945 30.6033 20.2265C30.6033 20.1059 30.6033 19.9854 30.6056 19.8625C30.6411 16.6321 31.4776 13.5481 32.9428 10.8163C34.0819 8.69178 35.6038 6.7776 37.4234 5.17301C40.6161 2.55224 45.2763 0.0378109 51.3709 0H51.5174C56.896 0 61.7169 1.98507 65.342 5.19427C65.3467 5.19899 65.3562 5.20372 65.3609 5.21081C67.1617 6.80832 68.667 8.70596 69.7966 10.8163C70.9806 13.0188 72.0062 16.1783 72.1291 19.0354Z" fill="#EA4B79"/>
<path d="M83.0494 48.0671C83.1865 48.3956 83.3236 48.7241 83.4536 49.0549C83.5883 48.7146 83.7253 48.3791 83.8647 48.0459C84.0089 47.715 84.1578 47.396 84.3208 47.0935L90.4037 35.71C90.4769 35.5682 90.5573 35.4548 90.6376 35.3697C90.718 35.2847 90.8078 35.2232 90.9094 35.1854C91.0086 35.1476 91.1197 35.124 91.2426 35.1145C91.3655 35.1051 91.5144 35.1003 91.6845 35.1003H94.57V55.6506H91.2024V42.3766C91.2024 42.1308 91.2095 41.8614 91.2237 41.566C91.2379 41.2706 91.2591 40.9728 91.2875 40.6703L85.0771 52.3256C84.9329 52.5902 84.7486 52.7958 84.5217 52.9424C84.2948 53.0889 84.0302 53.1621 83.7253 53.1621H83.2007C82.8958 53.1621 82.6312 53.0889 82.4043 52.9424C82.1751 52.7958 81.9907 52.5902 81.8489 52.3256L75.5534 40.6278C75.5912 40.9398 75.6172 41.2446 75.6314 41.5447C75.6456 41.8425 75.6527 42.1214 75.6527 42.3766V55.6506H72.2852V35.1003H75.1706C75.3408 35.1003 75.4873 35.1051 75.6125 35.1145C75.7354 35.124 75.8465 35.1476 75.9457 35.1854C76.045 35.2232 76.1371 35.2847 76.2222 35.3697C76.3073 35.4548 76.3876 35.5682 76.4633 35.71L82.6052 47.1218C82.7635 47.4243 82.9147 47.741 83.0494 48.0671Z" fill="#EA4B79"/>
<path d="M109.949 55.6505H108.371C108.038 55.6505 107.778 55.6009 107.589 55.5017C107.399 55.4024 107.255 55.2016 107.163 54.8991L106.849 53.8616C106.48 54.1925 106.119 54.4831 105.762 54.736C105.407 54.9889 105.041 55.1992 104.661 55.3693C104.28 55.5395 103.878 55.6671 103.453 55.7522C103.028 55.8372 102.553 55.8798 102.033 55.8798C101.416 55.8798 100.849 55.7971 100.326 55.6293C99.8066 55.4639 99.3576 55.2134 98.9842 54.8801C98.6084 54.5469 98.3178 54.1334 98.1098 53.6395C97.9018 53.1456 97.7979 52.569 97.7979 51.9144C97.7979 51.3637 97.942 50.8178 98.2303 50.2814C98.5186 49.745 99.0007 49.2605 99.6742 48.828C100.345 48.3956 101.243 48.0364 102.359 47.7504C103.477 47.4669 104.864 47.3227 106.523 47.3227V46.4625C106.523 45.4794 106.317 44.7516 105.906 44.2789C105.495 43.8063 104.894 43.57 104.108 43.57C103.538 43.57 103.065 43.6361 102.685 43.7685C102.304 43.9008 101.976 44.0497 101.697 44.2151C101.418 44.3805 101.161 44.5318 100.922 44.6618C100.686 44.7941 100.426 44.8603 100.14 44.8603C99.9035 44.8603 99.7002 44.7988 99.5301 44.6759C99.3623 44.5531 99.2229 44.4018 99.1189 44.2198L98.4808 43.0973C100.159 41.5636 102.179 40.7956 104.549 40.7956C105.403 40.7956 106.161 40.935 106.83 41.2162C107.499 41.4951 108.066 41.8826 108.527 42.3813C108.992 42.8775 109.347 43.4731 109.585 44.1655C109.829 44.8579 109.949 45.6165 109.949 46.4389V55.6505ZM103.127 53.4622C103.486 53.4622 103.819 53.4292 104.122 53.363C104.424 53.2992 104.713 53.1999 104.98 53.07C105.251 52.94 105.511 52.7793 105.762 52.5879C106.015 52.3965 106.265 52.1696 106.523 51.9096V49.4685C105.499 49.4685 104.644 49.5323 103.956 49.6623C103.269 49.7899 102.718 49.9553 102.3 50.1561C101.884 50.357 101.588 50.591 101.411 50.858C101.236 51.125 101.149 51.4157 101.149 51.7324C101.149 52.3516 101.328 52.7958 101.695 53.0629C102.063 53.3275 102.538 53.4622 103.127 53.4622Z" fill="#EA4B79"/>
<path d="M118.192 55.8774C116.933 55.8774 115.959 55.5182 115.278 54.8045C114.595 54.0885 114.255 53.1007 114.255 51.8411V43.6976H112.778C112.589 43.6976 112.424 43.6361 112.287 43.5133C112.147 43.3904 112.081 43.206 112.081 42.9603V41.5684L114.425 41.1855L115.165 37.2059C115.203 37.0169 115.29 36.8703 115.43 36.7664C115.567 36.6624 115.739 36.6104 115.947 36.6104H117.765V41.2021H121.602V43.7047H117.765V51.6071C117.765 52.0609 117.878 52.4177 118.107 52.6729C118.334 52.9282 118.637 53.0558 119.017 53.0558C119.234 53.0558 119.416 53.0298 119.563 52.9778C119.712 52.9258 119.837 52.8714 119.946 52.8124C120.054 52.7556 120.151 52.7013 120.236 52.6493C120.321 52.5973 120.407 52.5713 120.494 52.5713C120.598 52.5713 120.683 52.5973 120.749 52.6493C120.815 52.7013 120.889 52.7793 120.964 52.8833L122.014 54.5871C121.503 55.0148 120.915 55.3362 120.251 55.5536C119.589 55.7687 118.904 55.8774 118.192 55.8774Z" fill="#EA4B79"/>
<path d="M130.426 40.8405C131.346 40.8405 132.192 40.987 132.964 41.2801C133.737 41.5731 134.401 42.0032 134.961 42.5656C135.521 43.1281 135.956 43.8205 136.268 44.6405C136.58 45.4605 136.738 46.3963 136.738 47.448C136.738 47.7126 136.726 47.9348 136.703 48.1073C136.677 48.2822 136.637 48.4216 136.573 48.5209C136.514 48.6201 136.429 48.691 136.325 48.7335C136.221 48.7761 136.086 48.7973 135.928 48.7973H126.915C127.021 50.2956 127.423 51.3945 128.125 52.094C128.826 52.7958 129.753 53.1456 130.911 53.1456C131.48 53.1456 131.969 53.0794 132.383 52.9471C132.794 52.8147 133.156 52.6682 133.463 52.5075C133.77 52.3468 134.042 52.2003 134.274 52.068C134.505 51.9356 134.732 51.8695 134.949 51.8695C135.091 51.8695 135.214 51.8978 135.32 51.9545C135.424 52.0112 135.514 52.0916 135.59 52.1956L136.615 53.4741C136.228 53.9278 135.791 54.3106 135.306 54.6178C134.824 54.9251 134.318 55.1708 133.794 55.3575C133.269 55.5418 132.733 55.6718 132.189 55.7474C131.643 55.8231 131.116 55.8609 130.603 55.8609C129.587 55.8609 128.647 55.6931 127.775 55.3575C126.903 55.0219 126.147 54.5233 125.501 53.8664C124.859 53.2094 124.351 52.3917 123.982 51.4205C123.611 50.4492 123.427 49.3243 123.427 48.0459C123.427 47.051 123.59 46.1151 123.911 45.2384C124.232 44.3617 124.696 43.5983 125.296 42.9508C125.896 42.3033 126.633 41.7881 127.498 41.4077C128.358 41.0295 129.337 40.8405 130.426 40.8405ZM130.5 43.3549C129.474 43.3549 128.675 43.6432 128.096 44.2222C127.52 44.8012 127.151 45.6212 126.988 46.6823H133.583C133.583 46.2286 133.522 45.7984 133.399 45.3967C133.276 44.995 133.087 44.6405 132.83 44.338C132.574 44.0355 132.253 43.7945 131.865 43.6196C131.476 43.4447 131.019 43.3549 130.5 43.3549Z" fill="#EA4B79"/>
<path d="M148.252 43.9103C148.157 44.0615 148.058 44.1679 147.954 44.2317C147.85 44.2931 147.715 44.3238 147.557 44.3238C147.387 44.3238 147.203 44.2765 147.009 44.182C146.815 44.0875 146.591 43.9811 146.333 43.8606C146.078 43.7425 145.787 43.6361 145.459 43.5416C145.132 43.4471 144.747 43.3998 144.303 43.3998C143.611 43.3998 143.065 43.5463 142.668 43.8394C142.271 44.1324 142.07 44.5152 142.07 44.9902C142.07 45.3022 142.171 45.5668 142.375 45.7795C142.578 45.9922 142.85 46.1789 143.185 46.3396C143.523 46.5027 143.904 46.6468 144.331 46.7744C144.757 46.9021 145.194 47.0438 145.638 47.1951C146.085 47.3463 146.52 47.5188 146.945 47.7126C147.373 47.9064 147.756 48.1522 148.091 48.4523C148.427 48.7501 148.696 49.1093 148.902 49.5252C149.105 49.9411 149.207 50.4445 149.207 51.0305C149.207 51.7324 149.079 52.3799 148.824 52.9707C148.569 53.5639 148.195 54.0743 147.701 54.5044C147.21 54.9369 146.6 55.2701 145.877 55.5135C145.151 55.7545 144.32 55.8774 143.381 55.8774C142.88 55.8774 142.389 55.8325 141.909 55.7427C141.432 55.6529 140.973 55.5277 140.531 55.3646C140.092 55.2039 139.685 55.0148 139.31 54.7974C138.934 54.58 138.605 54.3437 138.322 54.0861L139.132 52.7509C139.236 52.5902 139.362 52.4673 139.503 52.3823C139.645 52.2972 139.825 52.2546 140.042 52.2546C140.262 52.2546 140.468 52.3161 140.661 52.439C140.855 52.5619 141.08 52.6942 141.337 52.836C141.592 52.9778 141.893 53.1101 142.24 53.233C142.585 53.3559 143.024 53.4173 143.554 53.4173C143.97 53.4173 144.329 53.3677 144.627 53.2685C144.925 53.1692 145.17 53.0392 145.364 52.8785C145.558 52.7178 145.702 52.5311 145.792 52.3161C145.882 52.1034 145.926 51.8836 145.926 51.6567C145.926 51.3165 145.825 51.0376 145.622 50.8178C145.418 50.6004 145.147 50.4114 144.811 50.2507C144.473 50.0876 144.09 49.9435 143.66 49.8159C143.23 49.6882 142.788 49.5464 142.339 49.3952C141.888 49.244 141.448 49.0667 141.016 48.8611C140.586 48.6579 140.201 48.4003 139.867 48.0884C139.529 47.7741 139.26 47.3912 139.054 46.9375C138.851 46.4838 138.75 45.9331 138.75 45.2904C138.75 44.6925 138.87 44.1253 139.106 43.5841C139.343 43.0453 139.692 42.5727 140.151 42.1709C140.609 41.7692 141.184 41.4455 141.869 41.2044C142.557 40.9634 143.348 40.8428 144.249 40.8428C145.253 40.8428 146.168 41.0083 146.992 41.3391C147.817 41.67 148.502 42.1071 149.053 42.6459L148.252 43.9103Z" fill="#EA4B79"/>
<path d="M83.7207 32.8553L86.28 11.7356H89.7326L87.1733 32.8553H83.7207Z" fill="#EA4B79"/>
<path d="M96.1157 33.068C95.3098 33.068 94.563 32.9333 93.8754 32.6639C93.1877 32.3945 92.5969 31.9998 92.0982 31.4775C91.602 30.9576 91.2097 30.3172 90.9285 29.5586C90.6449 28.8001 90.5007 27.9328 90.5007 26.9568C90.5007 25.6972 90.7016 24.5227 91.1033 23.4333C91.5051 22.3439 92.0557 21.401 92.7529 20.6046C93.45 19.8082 94.2606 19.1819 95.1917 18.7282C96.1204 18.2745 97.1082 18.0452 98.1622 18.0452C98.968 18.0452 99.7124 18.1799 100.4 18.4494C101.088 18.7211 101.681 19.1157 102.187 19.6356C102.688 20.1579 103.082 20.796 103.366 21.5545C103.647 22.3131 103.791 23.1804 103.791 24.1564C103.791 25.4065 103.588 26.574 103.182 27.6587C102.773 28.7434 102.222 29.6863 101.525 30.4874C100.828 31.2885 100.017 31.9171 99.0862 32.3779C98.1574 32.8387 97.1673 33.068 96.1157 33.068ZM96.4276 30.3669C97.016 30.3669 97.5477 30.1991 98.018 29.8611C98.493 29.5256 98.8971 29.0766 99.2351 28.5118C99.5706 27.9493 99.8306 27.2924 100.01 26.5432C100.187 25.7941 100.28 25.0095 100.28 24.1848C100.28 23.0008 100.079 22.1288 99.677 21.5687C99.2752 21.011 98.6655 20.7298 97.8526 20.7298C97.2642 20.7298 96.7324 20.8952 96.2622 21.2261C95.7872 21.5569 95.3854 22.0083 95.0522 22.5778C94.7214 23.145 94.4638 23.8043 94.2842 24.5534C94.1069 25.3026 94.0148 26.0919 94.0148 26.9261C94.0148 28.11 94.2133 28.9797 94.6127 29.535C95.012 30.0904 95.6147 30.3669 96.4276 30.3669Z" fill="#EA4B79"/>
<path d="M115.206 32.8553C114.778 32.8553 114.48 32.7561 114.31 32.5575C114.14 32.359 114.052 32.1085 114.052 31.8037L114.166 29.6697C113.464 30.7119 112.679 31.539 111.807 32.1511C110.935 32.7608 110.007 33.068 109.021 33.068C108.416 33.068 107.863 32.9569 107.365 32.7348C106.868 32.5126 106.443 32.1771 106.093 31.7328C105.743 31.2885 105.474 30.7237 105.283 30.0408C105.094 29.3578 104.999 28.5543 104.999 27.6256C104.999 26.8008 105.084 25.9926 105.257 25.2033C105.427 24.4117 105.668 23.6625 105.98 22.9512C106.292 22.2399 106.665 21.5877 107.095 20.9898C107.528 20.3919 108.01 19.8767 108.539 19.4395C109.068 19.0023 109.636 18.6644 110.236 18.4163C110.838 18.1705 111.462 18.0476 112.105 18.0476C112.76 18.0476 113.353 18.1658 113.882 18.4021C114.414 18.6384 114.877 18.9622 115.274 19.3686L116.226 11.7356H119.667L117.065 32.8553H115.206ZM110.387 30.3102C110.768 30.3102 111.155 30.1802 111.552 29.9202C111.949 29.6579 112.332 29.2987 112.701 28.8403C113.072 28.3794 113.412 27.8406 113.733 27.2191C114.05 26.5976 114.324 25.9288 114.551 25.2081L114.991 21.668C114.669 21.3183 114.298 21.0701 113.882 20.9283C113.466 20.7866 113.06 20.7157 112.66 20.7157C112.034 20.7157 111.467 20.9094 110.957 21.2993C110.444 21.6869 110.007 22.195 109.64 22.8213C109.274 23.4451 108.995 24.1493 108.797 24.9316C108.598 25.7138 108.499 26.4983 108.499 27.2853C108.499 28.3085 108.664 29.0695 108.995 29.5658C109.324 30.062 109.789 30.3102 110.387 30.3102Z" fill="#EA4B79"/>
<path d="M124.979 36.8916C124.734 37.376 124.355 37.6147 123.843 37.6147H121.243L124.481 31.7469L120.801 18.2744H123.743C123.999 18.2744 124.19 18.3383 124.32 18.4659C124.448 18.5935 124.535 18.7471 124.582 18.9291L126.376 26.4889C126.43 26.7346 126.478 26.9781 126.511 27.2144C126.544 27.4507 126.567 27.6917 126.589 27.9375C126.693 27.6917 126.799 27.446 126.908 27.2073C127.016 26.9662 127.128 26.7205 127.241 26.4747L130.838 18.9125C130.932 18.7235 131.069 18.5698 131.249 18.4517C131.428 18.3335 131.615 18.2744 131.804 18.2744H134.616L124.979 36.8916Z" fill="#EA4B79"/>
<path d="M80.8944 28.8402C80.781 28.7883 80.6676 28.7622 80.5518 28.7622C80.3627 28.7622 80.1878 28.8024 80.0271 28.8851C79.8641 28.9631 79.7034 29.06 79.5356 29.1734C79.3702 29.2892 79.1906 29.4168 78.9968 29.5586C78.803 29.7004 78.5856 29.828 78.3422 29.9415C78.1012 30.0549 77.8199 30.1518 77.4985 30.2345C77.1748 30.3149 76.8038 30.355 76.3878 30.355C74.4477 30.355 73.4764 29.2089 73.4764 26.9166V26.7299C75.2559 26.5503 76.7234 26.3069 77.8719 25.9973C79.0252 25.6901 79.9373 25.3238 80.6085 24.8961C81.282 24.4707 81.7499 23.9863 82.0099 23.4474C82.2698 22.9063 82.3998 22.3108 82.3998 21.6562C82.3998 21.2497 82.3053 20.8314 82.1162 20.406C81.9248 19.9783 81.6388 19.5931 81.256 19.2481C80.8732 18.9007 80.3934 18.6195 79.8215 18.4021C79.2473 18.1847 78.5762 18.0736 77.8105 18.0736C77.0235 18.0736 76.2862 18.1894 75.5985 18.4163C74.9109 18.6431 74.2823 18.9621 73.708 19.3686C73.682 19.3875 73.656 19.4064 73.63 19.4253C73.4386 19.5647 73.2519 19.716 73.0723 19.8743C73.0038 19.9358 72.9352 19.9972 72.8691 20.061C72.6209 20.295 72.387 20.5478 72.1672 20.8172C71.7135 21.3773 71.3283 21.9894 71.0163 22.6511C70.7044 23.3151 70.4634 24.017 70.3003 24.7543C70.1325 25.494 70.0498 26.2478 70.0498 27.0159C70.0498 27.9328 70.1845 28.7646 70.4539 29.509C70.6713 30.1069 70.9596 30.6339 71.3236 31.09C71.411 31.2011 71.5032 31.3098 71.6001 31.4137C71.652 31.4705 71.7064 31.5248 71.7607 31.5768C71.9167 31.728 72.0821 31.8698 72.257 31.9974C72.5949 32.2527 72.9683 32.4653 73.3748 32.6355C74.0672 32.9238 74.84 33.068 75.6907 33.068C76.3548 33.068 76.9668 33.0112 77.5269 32.8978C78.0823 32.7844 78.6163 32.6095 79.1173 32.3732C79.6183 32.1369 80.1122 31.832 80.5943 31.4634C81.0788 31.0923 81.5727 30.6575 82.0737 30.1542L81.178 29.0742C81.1024 28.9702 81.0079 28.8922 80.8944 28.8402ZM74.3342 22.885C74.5753 22.3982 74.8612 21.9799 75.1874 21.6278C75.5135 21.2781 75.8821 21.0063 76.2886 20.8102C76.6951 20.6164 77.137 20.5195 77.612 20.5195C77.905 20.5195 78.1531 20.5596 78.3564 20.64C78.5596 20.7203 78.7274 20.8196 78.8527 20.9401C78.9826 21.0583 79.0748 21.193 79.1386 21.3442C79.2 21.4955 79.2308 21.642 79.2308 21.7838C79.2308 22.0792 79.1669 22.3533 79.0393 22.6085C78.9117 22.8661 78.6494 23.1048 78.2571 23.334C77.8625 23.5609 77.3119 23.7689 76.5934 23.9603C75.8798 24.1493 74.9321 24.3242 73.76 24.4849C73.9018 23.9083 74.0932 23.3742 74.3342 22.885Z" fill="#EA4B79"/>
<path d="M72.111 19.8412C72.111 19.8461 72.1086 19.851 72.1061 19.8559L72.0818 19.8681C72.0915 19.8583 72.1013 19.851 72.111 19.8412Z" fill="#EA4B79"/>
</svg>
