<svg width="46" height="29" viewBox="0 0 46 29" fill="none" xmlns="http://www.w3.org/2000/svg">
<g filter="url(#filter0_dd_136_3529)">
<path d="M2.27092 11.7623L19.3171 1.56693C19.7388 1.31042 20.2217 1.17183 20.7153 1.16564C21.2089 1.15945 21.6951 1.28589 22.1231 1.53174C22.5875 1.80209 22.9721 2.19048 23.2377 2.65748C23.5034 3.12448 23.6407 3.65344 23.6357 4.19065L23.6357 11.3229L39.9464 1.56422C40.3681 1.30772 40.8509 1.16913 41.3445 1.16294C41.8381 1.15675 42.3243 1.28318 42.7523 1.52904C43.2168 1.79938 43.6013 2.18778 43.867 2.65477C44.1327 3.12177 44.27 3.65074 44.265 4.18795L44.265 24.1275C44.2701 24.6649 44.1329 25.194 43.8672 25.6612C43.6015 26.1284 43.2169 26.5169 42.7523 26.7873C42.3243 27.0332 41.8381 27.1596 41.3445 27.1534C40.8509 27.1473 40.3681 27.0087 39.9464 26.7522L23.6357 16.989L23.6357 24.1239C23.6415 24.6619 23.5046 25.1918 23.2389 25.6597C22.9732 26.1275 22.5882 26.5166 22.1231 26.7873C21.6951 27.0332 21.2089 27.1596 20.7153 27.1534C20.2217 27.1473 19.7388 27.0087 19.3171 26.7522L2.27092 16.5568C1.86568 16.303 1.53159 15.9505 1.3 15.5323C1.0684 15.1141 0.946907 14.6439 0.946907 14.1659C0.946907 13.6878 1.0684 13.2176 1.3 12.7994C1.53159 12.3812 1.86568 12.0287 2.27092 11.7749L2.27092 11.7623Z" fill="url(#paint0_linear_136_3529)"/>
<path d="M19.577 1.99412L19.5738 1.99604L2.77092 12.0458L2.77092 12.0518L2.53629 12.1987C2.20284 12.4075 1.92795 12.6976 1.73741 13.0417C1.54686 13.3857 1.44691 13.7726 1.44691 14.1659C1.44691 14.5591 1.54686 14.946 1.73741 15.2901C1.92716 15.6327 2.20056 15.9218 2.53213 16.1304L19.5738 26.323L19.5769 26.325C19.9222 26.535 20.3175 26.6484 20.7216 26.6535C21.1251 26.6585 21.5227 26.5553 21.8727 26.3546C22.2609 26.1283 22.5823 25.8034 22.8041 25.4127C23.0262 25.0217 23.1406 24.5789 23.1358 24.1293L23.1357 24.1293L23.1357 24.1239L23.1357 16.989L23.1357 16.107L23.8925 16.56L40.2032 26.3231L40.2062 26.325C40.5514 26.535 40.9467 26.6484 41.3508 26.6535C41.7545 26.6585 42.1521 26.5553 42.5022 26.3544C42.8898 26.1284 43.2108 25.804 43.4326 25.414L43.8672 25.6612L43.4326 25.414C43.6546 25.0236 43.7693 24.5814 43.765 24.1323L43.765 24.1323L43.765 24.1275L43.765 4.18795L43.765 4.18795L43.765 4.1833C43.7692 3.73436 43.6544 3.2923 43.4324 2.90201C43.2106 2.51215 42.8897 2.18781 42.5021 1.96188C42.152 1.76109 41.7544 1.65784 41.3508 1.6629C40.9467 1.66796 40.5514 1.78142 40.2062 1.99141L40.2062 1.99142L40.2031 1.99329L23.8925 11.752L23.1357 12.2047L23.1357 11.3229L23.1357 4.19065L23.1358 4.18601C23.1399 3.73707 23.0252 3.295 22.8032 2.90472C22.5814 2.51488 22.2605 2.19057 21.8729 1.96464C21.5228 1.76382 21.1252 1.66054 20.7216 1.6656C20.3175 1.67067 19.9222 1.78413 19.577 1.99412Z" stroke="url(#paint1_linear_136_3529)"/>
</g>
<defs>
<filter id="filter0_dd_136_3529" x="0.447021" y="0.66272" width="45.0181" height="27.3909" filterUnits="userSpaceOnUse" color-interpolation-filters="sRGB">
<feFlood flood-opacity="0" result="BackgroundImageFix"/>
<feColorMatrix in="SourceAlpha" type="matrix" values="0 0 0 0 0 0 0 0 0 0 0 0 0 0 0 0 0 0 127 0" result="hardAlpha"/>
<feOffset dx="0.5" dy="0.2"/>
<feGaussianBlur stdDeviation="0.35"/>
<feComposite in2="hardAlpha" operator="out"/>
<feColorMatrix type="matrix" values="0 0 0 0 1 0 0 0 0 1 0 0 0 0 1 0 0 0 1 0"/>
<feBlend mode="normal" in2="BackgroundImageFix" result="effect1_dropShadow_136_3529"/>
<feColorMatrix in="SourceAlpha" type="matrix" values="0 0 0 0 0 0 0 0 0 0 0 0 0 0 0 0 0 0 127 0" result="hardAlpha"/>
<feOffset dx="-0.2" dy="0.4"/>
<feGaussianBlur stdDeviation="0.15"/>
<feComposite in2="hardAlpha" operator="out"/>
<feColorMatrix type="matrix" values="0 0 0 0 0 0 0 0 0 0 0 0 0 0 0 0 0 0 0.59 0"/>
<feBlend mode="normal" in2="effect1_dropShadow_136_3529" result="effect2_dropShadow_136_3529"/>
<feBlend mode="normal" in="SourceGraphic" in2="effect2_dropShadow_136_3529" result="shape"/>
</filter>
<linearGradient id="paint0_linear_136_3529" x1="22.606" y1="1.16272" x2="22.606" y2="27.1537" gradientUnits="userSpaceOnUse">
<stop stop-color="#7E3093"/>
<stop offset="1" stop-color="#CC576E"/>
</linearGradient>
<linearGradient id="paint1_linear_136_3529" x1="22.606" y1="1.16272" x2="22.606" y2="27.1537" gradientUnits="userSpaceOnUse">
<stop stop-color="#C433F4"/>
<stop offset="0.466" stop-color="#C5EA4D" stop-opacity="0.73"/>
<stop offset="1" stop-color="#EA4B79"/>
</linearGradient>
</defs>
</svg>
