<svg width="16" height="18" viewBox="0 0 16 18" fill="none" xmlns="http://www.w3.org/2000/svg">
<path d="M15.7083 1.29168C15.7083 1.09411 15.6091 0.908179 15.4407 0.790246C15.2723 0.672313 15.0545 0.636263 14.8535 0.693038L5.99929 3.19304C5.7184 3.27235 5.52604 3.51567 5.52604 3.79168V12.0228C5.02408 11.6933 4.41362 11.5 3.75521 11.5C2.0437 11.5 0.65625 12.8058 0.65625 14.4167C0.65625 16.0275 2.0437 17.3333 3.75521 17.3333C5.46672 17.3333 6.85417 16.0275 6.85417 14.4167C6.85417 14.3688 6.85294 14.3213 6.85053 14.2741C6.85294 14.2525 6.85417 14.2305 6.85417 14.2083V7.59L14.3802 5.46503V10.3561C13.8783 10.0266 13.2678 9.83334 12.6094 9.83334C10.8979 9.83334 9.51042 11.1392 9.51042 12.75C9.51042 14.3608 10.8979 15.6667 12.6094 15.6667C14.3209 15.6667 15.7083 14.3608 15.7083 12.75C15.7083 12.7023 15.7071 12.6547 15.7047 12.6075C15.7071 12.5858 15.7083 12.5639 15.7083 12.5417V1.29168Z" fill="url(#paint0_linear_95_1380)" fill-opacity="0.6"/>
<defs>
<linearGradient id="paint0_linear_95_1380" x1="8.18229" y1="0.666672" x2="8.18229" y2="17.3333" gradientUnits="userSpaceOnUse">
<stop stop-color="#C433F4"/>
<stop offset="0.466" stop-color="#C5EA4D" stop-opacity="0.73"/>
<stop offset="1" stop-color="#EA4B79"/>
</linearGradient>
</defs>
</svg>
